<svg xmlns="http://www.w3.org/2000/svg" width="520.6286mm" height="73.21608mm" viewBox="0 0 520.6286 73.21608"><path d="M0 0h-1.578v.75h4.022V0H.867v-6.132H0Z" style="fill:#645854;fill-opacity:1;fill-rule:nonzero;stroke:none" transform="matrix(1.61049 0 0 -1.61049 121.65 55.808)"/><path d="M0 0h.866v-2.938h2.406V0h.868v-6.882h-.868v3.194H.866v-3.194H0Z" style="fill:#645854;fill-opacity:1;fill-rule:nonzero;stroke:none" transform="matrix(1.61049 0 0 -1.61049 127.096 54.6)"/><path d="M0 0h3.205v-.75H.867v-2.188h2.229v-.75H.867v-2.444h2.466v-.75H0Z" style="fill:#645854;fill-opacity:1;fill-rule:nonzero;stroke:none" transform="matrix(1.61049 0 0 -1.61049 136.21 54.6)"/><path d="M0 0a4.324 4.324 0 0 0-1.253-.207c-2.179 0-3.096 1.656-3.096 3.52 0 2.149 1.251 3.5 3.048 3.5.492 0 .985-.088 1.301-.248v-.846c-.375.236-.809.345-1.292.345-1.125 0-2.149-.898-2.149-2.573 0-1.774.711-2.948 2.207-2.948.445 0 .878.117 1.234.324z" style="fill:#645854;fill-opacity:1;fill-rule:nonzero;stroke:none" transform="matrix(1.61049 0 0 -1.61049 153.914 65.462)"/><path d="m0 0-1.054 3.431h-.02L-2.159 0Zm-.561 4.338 2.248-6.882H.781L.227-.749h-2.621l-.553-1.795h-.868l2.307 6.882z" style="fill:#645854;fill-opacity:1;fill-rule:nonzero;stroke:none" transform="matrix(1.61049 0 0 -1.61049 160.945 61.586)"/><path d="M0 0h-1.578v.75h4.022V0H.868v-6.132H0Z" style="fill:#645854;fill-opacity:1;fill-rule:nonzero;stroke:none" transform="matrix(1.61049 0 0 -1.61049 166.617 55.808)"/><path d="M0 0h.867v-2.938h2.404V0h.87v-6.882h-.87v3.194H.867v-3.194H0Z" style="fill:#645854;fill-opacity:1;fill-rule:nonzero;stroke:none" transform="matrix(1.61049 0 0 -1.61049 172.063 54.6)"/><path d="M0 0c.907 0 1.676.75 1.676 2.869 0 1.39-.434 2.732-1.597 2.732-.909 0-1.676-.75-1.676-2.87C-1.597 1.341-1.164 0 0 0m.079 6.311c1.526 0 2.504-1.314 2.504-3.442C2.583.494 1.625-.71 0-.71c-1.53 0-2.504 1.312-2.504 3.441 0 2.375.955 3.58 2.583 3.58" style="fill:#645854;fill-opacity:1;fill-rule:nonzero;stroke:none" transform="matrix(1.61049 0 0 -1.61049 184.75 64.652)"/><path d="M0 0h.868v-6.132h2.258v-.75H0Z" style="fill:#645854;fill-opacity:1;fill-rule:nonzero;stroke:none" transform="matrix(1.61049 0 0 -1.61049 190.894 54.6)"/><path d="M248.268 432.178h.868v-6.882h-.868z" style="fill:#645854;fill-opacity:1;fill-rule:nonzero;stroke:none" transform="matrix(1.61049 0 0 -1.61049 -202.478 750.618)"/><path d="M0 0a4.33 4.33 0 0 0-1.253-.207c-2.179 0-3.095 1.656-3.095 3.52 0 2.149 1.252 3.5 3.047 3.5.493 0 .986-.088 1.301-.248v-.846c-.375.236-.808.345-1.292.345-1.123 0-2.149-.898-2.149-2.573 0-1.774.711-2.948 2.209-2.948.443 0 .877.117 1.232.324z" style="fill:#645854;fill-opacity:1;fill-rule:nonzero;stroke:none" transform="matrix(1.61049 0 0 -1.61049 207.74 65.462)"/><path d="M0 0c0-.681-.04-1.057-.276-1.539-.286-.573-.889-1.065-1.884-1.065-.995 0-1.596.492-1.882 1.065-.237.482-.277.858-.277 1.539v4.347h.868V-.129c0-1.075.472-1.766 1.291-1.766s1.291.691 1.291 1.766v4.476H0Z" style="fill:#645854;fill-opacity:1;fill-rule:nonzero;stroke:none" transform="matrix(1.61049 0 0 -1.61049 220.491 61.6)"/><path d="M0 0h1.075l2.593-5.68h.02V0h.828v-6.882H3.442L.848-1.244H.829v-5.638H0Z" style="fill:#645854;fill-opacity:1;fill-rule:nonzero;stroke:none" transform="matrix(1.61049 0 0 -1.61049 222.935 54.6)"/><path d="M270.185 432.178h.868v-6.882h-.868z" style="fill:#645854;fill-opacity:1;fill-rule:nonzero;stroke:none" transform="matrix(1.61049 0 0 -1.61049 -202.478 750.618)"/><path d="M0 0h.945l1.597-5.61h.02L4.248 0h.868L2.957-6.882h-.869Z" style="fill:#645854;fill-opacity:1;fill-rule:nonzero;stroke:none" transform="matrix(1.61049 0 0 -1.61049 235.418 54.6)"/><path d="M277.815 426.399h.95v-1.104h-.95z" style="fill:#645854;fill-opacity:1;fill-rule:nonzero;stroke:none" transform="matrix(1.61049 0 0 -1.61049 -202.478 750.618)"/><path d="M0 0c.907 0 1.676.75 1.676 2.869 0 1.39-.435 2.732-1.597 2.732-.907 0-1.676-.75-1.676-2.87C-1.597 1.341-1.163 0 0 0m.079 6.311c1.527 0 2.502-1.314 2.502-3.442C2.581.494 1.626-.71 0-.71c-1.528 0-2.505 1.312-2.505 3.441 0 2.375.958 3.58 2.584 3.58" style="fill:#645854;fill-opacity:1;fill-rule:nonzero;stroke:none" transform="matrix(1.61049 0 0 -1.61049 256.217 64.652)"/><path d="M0 0h3.076v-.75H.868v-2.188h2.1v-.75h-2.1v-3.194H0Z" style="fill:#645854;fill-opacity:1;fill-rule:nonzero;stroke:none" transform="matrix(1.61049 0 0 -1.61049 262.36 54.6)"/><path d="M0 0h.868v-2.988h.02L3.165 0H4.2L1.616-3.253l2.8-3.629H3.293L.888-3.549h-.02v-3.333H0Z" style="fill:#645854;fill-opacity:1;fill-rule:nonzero;stroke:none" transform="matrix(1.61049 0 0 -1.61049 272.777 54.6)"/><path d="M0 0c.907 0 1.677.75 1.677 2.869 0 1.39-.436 2.732-1.598 2.732-.908 0-1.678-.75-1.678-2.87C-1.599 1.341-1.162 0 0 0m.079 6.311c1.527 0 2.502-1.314 2.502-3.442C2.581.494 1.626-.71 0-.71c-1.529 0-2.506 1.312-2.506 3.441 0 2.375.957 3.58 2.585 3.58" style="fill:#645854;fill-opacity:1;fill-rule:nonzero;stroke:none" transform="matrix(1.61049 0 0 -1.61049 284.75 64.652)"/><path d="M0 0h.671C1.597 0 1.95.613 1.95 1.215c0 .769-.5 1.134-1.261 1.134H0Zm-.868 3.058H.896c.73 0 1.134-.179 1.449-.474.354-.335.514-.809.514-1.312 0-.728-.345-1.428-1.361-1.646v-.021c.414-.077.611-.275.748-.669l.967-2.76h-.938l-.787 2.326c-.199.573-.444.789-1.093.789H0v-3.115h-.868z" style="fill:#645854;fill-opacity:1;fill-rule:nonzero;stroke:none" transform="matrix(1.61049 0 0 -1.61049 292.293 59.525)"/><path d="M0 0h3.204v-.75H.868v-2.188h2.228v-.75H.868v-2.444h2.465v-.75H0Z" style="fill:#645854;fill-opacity:1;fill-rule:nonzero;stroke:none" transform="matrix(1.61049 0 0 -1.61049 299.134 54.6)"/><path d="m0 0-1.056 3.431h-.019L-2.16 0Zm-.563 4.338 2.248-6.882H.777L.227-.749h-2.624l-.551-1.795h-.869l2.307 6.882z" style="fill:#645854;fill-opacity:1;fill-rule:nonzero;stroke:none" transform="matrix(1.61049 0 0 -1.61049 311.537 61.586)"/><path d="M0 0a2.324 2.324 0 0 1-1.174.315c-.649 0-1.075-.444-1.075-1.026 0-.442.18-.719 1.164-1.291C-.02-2.613.337-3.215.337-4.004c0-1.094-.681-1.952-2.004-1.952-.551 0-1.075.119-1.438.295v.899c.394-.237.907-.444 1.311-.444.779 0 1.222.521 1.222 1.084 0 .532-.138.838-1.064 1.399-1.243.75-1.519 1.174-1.519 2.062 0 1.134.868 1.725 1.914 1.725.452 0 .937-.098 1.241-.227z" style="fill:#645854;fill-opacity:1;fill-rule:nonzero;stroke:none" transform="matrix(1.61049 0 0 -1.61049 323.984 56.203)"/><path d="M0 0h3.202v-.75H.866v-2.188h2.228v-.75H.866v-2.444h2.466v-.75H0Z" style="fill:#645854;fill-opacity:1;fill-rule:nonzero;stroke:none" transform="matrix(1.61049 0 0 -1.61049 326.463 54.6)"/><path d="M0 0c.907 0 1.677.75 1.677 2.869 0 1.39-.436 2.732-1.598 2.732-.906 0-1.676-.75-1.676-2.87C-1.597 1.341-1.164 0 0 0m.079 6.311c1.525 0 2.502-1.314 2.502-3.442C2.581.494 1.624-.71 0-.71c-1.529 0-2.504 1.312-2.504 3.441 0 2.375.955 3.58 2.583 3.58" style="fill:#645854;fill-opacity:1;fill-rule:nonzero;stroke:none" transform="matrix(1.61049 0 0 -1.61049 337.387 64.652)"/><path d="M0 0c0-.681-.039-1.057-.274-1.539-.289-.573-.888-1.065-1.886-1.065-.995 0-1.595.492-1.883 1.065-.234.482-.274.858-.274 1.539v4.347h.868V-.129c0-1.075.471-1.766 1.289-1.766s1.292.691 1.292 1.766v4.476H0Z" style="fill:#645854;fill-opacity:1;fill-rule:nonzero;stroke:none" transform="matrix(1.61049 0 0 -1.61049 350.485 61.6)"/><path d="M0 0h.866v-6.132h2.259v-.75H0Z" style="fill:#645854;fill-opacity:1;fill-rule:nonzero;stroke:none" transform="matrix(1.61049 0 0 -1.61049 352.932 54.6)"/><path d="M0 0a2.324 2.324 0 0 1-1.174.315c-.649 0-1.075-.444-1.075-1.026 0-.442.178-.719 1.164-1.291C-.02-2.613.336-3.215.336-4.004c0-1.094-.683-1.952-2.003-1.952-.551 0-1.073.119-1.438.295v.899c.394-.237.907-.444 1.308-.444.781 0 1.225.521 1.225 1.084 0 .532-.138.838-1.066 1.399-1.241.75-1.518 1.174-1.518 2.062 0 1.134.868 1.725 1.915 1.725.454 0 .935-.098 1.241-.227z" style="fill:#645854;fill-opacity:1;fill-rule:nonzero;stroke:none" transform="matrix(1.61049 0 0 -1.61049 367.777 56.203)"/><path d="M0 0h-1.576v.75h4.021V0H.868v-6.132H0Z" style="fill:#645854;fill-opacity:1;fill-rule:nonzero;stroke:none" transform="matrix(1.61049 0 0 -1.61049 371.857 55.808)"/><path d="M359.954 426.399h.945v-1.104h-.945z" style="fill:#645854;fill-opacity:1;fill-rule:nonzero;stroke:none" transform="matrix(1.61049 0 0 -1.61049 -202.478 750.618)"/><path d="M0 0h1.34l1.724-5.473h.022L4.85 0h1.3v-6.882h-.827v5.936h-.019L3.351-6.882h-.63L.847-.946h-.02v-5.936H0Z" style="fill:#645854;fill-opacity:1;fill-rule:nonzero;stroke:none" transform="matrix(1.61049 0 0 -1.61049 384.926 54.6)"/><path d="m0 0-1.054 3.431h-.021L-2.16 0Zm-.561 4.338 2.247-6.882H.777L.227-.749h-2.623l-.551-1.795h-.868l2.307 6.882z" style="fill:#645854;fill-opacity:1;fill-rule:nonzero;stroke:none" transform="matrix(1.61049 0 0 -1.61049 402.327 61.586)"/><path d="M0 0h.669c.926 0 1.28.613 1.28 1.215 0 .769-.501 1.134-1.261 1.134H0Zm-.87 3.058H.896c.728 0 1.134-.179 1.45-.474.353-.335.511-.809.511-1.312 0-.728-.345-1.428-1.361-1.646v-.021c.414-.077.613-.275.751-.669l.967-2.76h-.939l-.789 2.326c-.197.573-.444.789-1.091.789H0v-3.115h-.87z" style="fill:#645854;fill-opacity:1;fill-rule:nonzero;stroke:none" transform="matrix(1.61049 0 0 -1.61049 407.792 59.525)"/><path d="m0 0-2.06 3.993h.987L.444.946l1.528 3.047h.958L.868 0v-2.889H0Z" style="fill:#645854;fill-opacity:1;fill-rule:nonzero;stroke:none" transform="matrix(1.61049 0 0 -1.61049 416.823 61.031)"/><path d="M388.356 432.691h.712v-2.289h-.712z" style="fill:#645854;fill-opacity:1;fill-rule:nonzero;stroke:none" transform="matrix(1.61049 0 0 -1.61049 -202.478 750.618)"/><path d="M0 0c-.324.196-.75.315-1.174.315-.649 0-1.073-.444-1.073-1.026 0-.442.179-.719 1.164-1.291C-.02-2.613.337-3.215.337-4.004c0-1.094-.681-1.952-2.004-1.952-.551 0-1.072.119-1.438.295v.899c.394-.237.907-.444 1.311-.444.779 0 1.222.521 1.222 1.084 0 .532-.139.838-1.064 1.399-1.241.75-1.519 1.174-1.519 2.062 0 1.134.868 1.725 1.914 1.725.452 0 .937-.098 1.241-.227z" style="fill:#645854;fill-opacity:1;fill-rule:nonzero;stroke:none" transform="matrix(1.61049 0 0 -1.61049 431.24 56.203)"/><path d="M0 0h.868v-2.938h2.405V0h.869v-6.882h-.869v3.194H.868v-3.194H0Z" style="fill:#645854;fill-opacity:1;fill-rule:nonzero;stroke:none" transform="matrix(1.61049 0 0 -1.61049 437.528 54.6)"/><path d="M0 0c.907 0 1.677.75 1.677 2.869 0 1.39-.433 2.732-1.597 2.732-.907 0-1.675-.75-1.675-2.87C-1.595 1.341-1.162 0 0 0m.08 6.311c1.527 0 2.506-1.314 2.506-3.442C2.586.494 1.629-.71 0-.71c-1.527 0-2.504 1.312-2.504 3.441 0 2.375.957 3.58 2.584 3.58" style="fill:#645854;fill-opacity:1;fill-rule:nonzero;stroke:none" transform="matrix(1.61049 0 0 -1.61049 450.214 64.652)"/><path d="M0 0a2.327 2.327 0 0 1-1.174.315c-.65 0-1.073-.444-1.073-1.026 0-.442.176-.719 1.164-1.291C-.02-2.613.334-3.215.334-4.004c0-1.094-.681-1.952-1.999-1.952-.554 0-1.077.119-1.44.295v.899c.392-.237.906-.444 1.31-.444.779 0 1.222.521 1.222 1.084 0 .532-.137.838-1.064 1.399-1.243.75-1.517 1.174-1.517 2.062 0 1.134.868 1.725 1.912 1.725.453 0 .936-.098 1.242-.227z" style="fill:#645854;fill-opacity:1;fill-rule:nonzero;stroke:none" transform="matrix(1.61049 0 0 -1.61049 460.934 56.203)"/><path d="M0 0h.474c1.053 0 1.438.492 1.438 1.262 0 .946-.532 1.321-1.419 1.321H0Zm-.866 3.292H.788c.691 0 1.124-.188 1.489-.532.347-.336.543-.818.543-1.42C2.82 0 2.042-.711.582-.711H0V-3.59h-.866z" style="fill:#645854;fill-opacity:1;fill-rule:nonzero;stroke:none" transform="matrix(1.61049 0 0 -1.61049 464.807 59.902)"/><path d="M418.214 432.178h.866v-6.882h-.866z" style="fill:#645854;fill-opacity:1;fill-rule:nonzero;stroke:none" transform="matrix(1.61049 0 0 -1.61049 -202.478 750.618)"/><path d="M0 0h-1.578v.75h4.021V0H.866v-6.132H0Z" style="fill:#645854;fill-opacity:1;fill-rule:nonzero;stroke:none" transform="matrix(1.61049 0 0 -1.61049 476.494 55.808)"/><path d="m0 0-1.054 3.431h-.019L-2.157 0Zm-.561 4.338 2.248-6.882H.779L.227-.749h-2.621l-.552-1.795h-.867l2.305 6.882z" style="fill:#645854;fill-opacity:1;fill-rule:nonzero;stroke:none" transform="matrix(1.61049 0 0 -1.61049 486.988 61.586)"/><path d="M0 0h.868v-6.132h2.257v-.75H0Z" style="fill:#645854;fill-opacity:1;fill-rule:nonzero;stroke:none" transform="matrix(1.61049 0 0 -1.61049 491.055 54.6)"/><path d="M396.986 456.842h7.261v-7.186h-7.261zm5.416-9.175h5.42v11.217h-15.344l-.028-.091.047-.022c.756-.349.912-1.151.912-1.758v-7.046c0-1.399.919-2.3 2.33-2.3h3.088v-5.986h-7.183v-2.019h17.94v2.019h-7.182zm-20.701-7.726c-1.659 0-3.062 1.448-3.062 3.158 0 1.74 1.389 3.155 3.095 3.155a3.116 3.116 0 0 0 3.154-3.155c0-1.741-1.429-3.158-3.187-3.158m6.022 19.844h-3.769l.168-.103c.513-.309.793-.911.793-1.699v-1.888h-3.91v-2.02h3.91v-6.401a8.424 8.424 0 0 1-3.175.612c-3.693 0-6.696-2.32-6.696-5.165 0-2.841 3.003-5.16 6.696-5.16 3.718 0 6.748 2.319 6.748 5.16 0 .051-.004.098-.004.144h.004v15.815c0 .483-.243.705-.765.705m-10.666-7.306c.905-1.548 3.598-3.372 5.08-3.682l.026-.006 1.799 1.676-.071.029c-2.867 1.17-5.023 4.1-5.023 6.817v2.149h-4.625l.171-.101c.547-.328.835-.856.835-1.527v-.521c0-2.713-2.446-6.066-5.035-6.904l-.081-.022 1.802-1.678.027.006c1.485.307 4.317 2.288 5.095 3.764m63.023-3.4h4.394v1.92h-12.822v-1.92h4.379c-.04-.706-.912-1.544-2.798-1.75l-.044-.002v-1.931h.052c3.285 0 6.093 1.512 6.839 3.683m8.15 10.76h-3.584l.124-.088c.003-.003.655-.544.655-1.768v-10.389h-4.308v-1.778h4.308v-4.976h-6.795v3.764h-3.952l.056-.092c.263-.432.323-1.164.323-1.705v-1.703c0-1.378.917-2.302 2.282-2.302h11.651V440h.008v19.134c0 .482-.243.705-.768.705m-23.284-7.4h-2.64v2.519h2.64zm-3.217-12.498c-1.658 0-3.059 1.448-3.059 3.158 0 1.74 1.388 3.155 3.096 3.155a3.12 3.12 0 0 0 3.153-3.155c0-1.741-1.429-3.158-3.19-3.158m-2.875 10.849h-3.583v3.157h3.583zm8.896 8.995h-3.765l.168-.103c.511-.309.793-.911.793-1.699v-1.032h-2.639v2.155h-4.495l.15-.085.067-.036c.548-.247.825-.758.825-1.512v-1.486h-3.583v3.119h-4.225v-.105c.278-.107.746-.449.746-1.528v-6.42c0-1.384.903-2.282 2.299-2.282h8.216v1.678h2.639v-2.775a8.431 8.431 0 0 1-3.175.612c-3.697 0-6.696-2.32-6.696-5.165 0-2.841 2.999-5.16 6.696-5.16 3.718 0 6.749 2.319 6.749 5.16 0 .059-.004.115-.006.174h.006v15.785c0 .483-.243.705-.77.705m10.066-1.407c1.168 0 2.084-1.062 2.084-2.417 0-1.358-.916-2.423-2.084-2.423-1.189 0-2.085 1.042-2.085 2.423 0 1.378.896 2.417 2.085 2.417m0-6.759c3.028 0 5.405 1.907 5.405 4.342 0 2.392-2.425 4.337-5.405 4.337-2.991 0-5.425-1.945-5.425-4.337 0-2.435 2.383-4.342 5.425-4.342m-78.028 6.84c1.531 0 2.729-1.143 2.729-2.603 0-1.454-1.198-2.597-2.729-2.597-1.562 0-2.736 1.117-2.736 2.597 0 1.483 1.174 2.603 2.736 2.603m0-7.263c3.773 0 6.733 2.044 6.733 4.66 0 2.571-3.021 4.664-6.733 4.664-3.728 0-6.764-2.093-6.764-4.664 0-2.616 2.97-4.66 6.764-4.66m-9.646-2.659h7.823v-.995h-5.291v-2.034h10.904v-1.138h-11.391l-.011-.101c.002 0 .703-.26.703-1.67v-1.039c0-1.306 1.136-2.328 2.586-2.328h12.113v2.01h-11.087v1.21h9.037c1.118 0 1.66.622 1.66 1.897v2.476c0 .489-.246.717-.776.717h-4.832v.995h7.821v1.988h-19.259zm-12.575 7.588v3.458h-4.677l.173-.112c.561-.331.855-.873.855-1.558v-1.788c0-3.232-2.047-7.083-4.526-8.336l-.083-.024 2.081-1.663.024.005c2.253 1.408 3.539 3.452 4.318 4.976.78-1.52 2.376-3.776 4.353-4.976l.022-.005 1.997 1.687c-2.528 1.367-4.537 5.104-4.537 8.336m9.579 3.943h-3.766l.168-.107c.511-.308.791-.908.791-1.693v-3.937h-3.91v-2.013h3.91v-13.516h3.575v20.559c0 .478-.244.707-.768.707" style="fill:#645854;fill-opacity:1;fill-rule:nonzero;stroke:none" transform="matrix(1.61049 0 0 -1.61049 -202.478 750.618)"/><path d="M0 0c.785 1.373 1.202 3.517 1.202 6.215v11.949h-14.913v-2.063h11.338V7.689c0-3.092-.065-6.233-.872-7.689h-.607v9.687h-3.875l.085-.092c.13-.128.422-.565.422-1.731V0h-1.688v9.687h-3.854l.074-.108c.34-.433.412-1.172.412-1.715V0h-2.893v-2.042H3.125V0Z" style="fill:#645854;fill-opacity:1;fill-rule:nonzero;stroke:none" transform="matrix(1.61049 0 0 -1.61049 311.238 40.65)"/><path d="M0 0H-3.301l.137-.093c.31-.207.677-.677.677-1.73V-5.79h-1.592v5.073c0 .491-.249.717-.78.717h-3.373l.154-.103c.264-.173.702-.626.702-1.72v-9.371c-.382-.161-1.169-.423-2.37-.423h-4.246V-2.9h5.097v2.065h-9.552l.116-.106c.435-.37.671-1.067.671-1.959v-8.496c0-1.412.872-2.288 2.27-2.288h5.528c1.003 0 1.854.246 2.486.693v-8.267h3.297v13.425h1.592v-13.425H.785V-.717C.785-.226.537 0 0 0" style="fill:#645854;fill-opacity:1;fill-rule:nonzero;stroke:none" transform="matrix(1.61049 0 0 -1.61049 247.02 9.703)"/><path d="M0 0c0 1.58 1.032 2.863 2.302 2.863C3.57 2.863 4.601 1.58 4.601 0c0-1.573-1.031-2.858-2.299-2.858C1.032-2.858 0-1.573 0 0m7.822 0c0 1.283-.59 2.448-1.546 3.304h1.792v1.993h-3.98V7.6H.057l-.023-.096c.004-.003.458-.272.458-1.328v-.879h-3.977V3.304h1.808C-2.634 2.448-3.222 1.283-3.222 0c0-2.629 2.474-4.768 5.524-4.768 3.045 0 5.52 2.139 5.52 4.768m5.455 3.047V6.71c0 .491-.244.716-.779.716H8.741l.162-.105c.503-.309.774-.92.774-1.718V-6.255H-1.585v-2.04h10.97c.193 0 .268-.119.268-.431v-5.128h3.624V.981h3.246v2.066z" style="fill:#645854;fill-opacity:1;fill-rule:nonzero;stroke:none" transform="matrix(1.61049 0 0 -1.61049 258.765 21.628)"/><path d="M0 0h9.052c1.124 0 1.668.625 1.668 1.902v2.487c0 .488-.246.714-.778.714h-13.77V3.062H7.099V1.924H-4.316l-.014-.099c.008-.002.71-.264.71-1.675V-.896c0-1.307 1.137-2.332 2.585-2.332h12.143v2.016H0Zm5.096 8.212v1.405h5.602v1.993H-.436v1.132h11.134v2.04H-.436v1.187h11.134v1.995H-4.904l.127-.092c.029-.021.723-.532.723-1.949v-4.047c0-1.483 1.288-2.259 2.562-2.259h2.969V8.212h-7.841V6.217h19.3v1.995z" style="fill:#645854;fill-opacity:1;fill-rule:nonzero;stroke:none" transform="matrix(1.61049 0 0 -1.61049 161.342 38.734)"/><path d="M0 0h-3.813l.17-.108c.518-.31.8-.921.8-1.713v-7.273c-.862-.346-2.069-.546-3.308-.546h-6.211v2.524l5.262-.002c1.118 0 1.666.619 1.666 1.897v4.048c0 .488-.249.716-.782.716l-9.972-.003v-2.019h7.404v-2.619h-7.94l.106-.099c.237-.223.635-.77.635-1.919v-2.256c0-1.408.879-2.286 2.289-2.286h7.361c1.299 0 2.533.304 3.49.849v-2.785h-11.518v-2.043h11.248c.197 0 .27-.121.27-.429v-5.132H.779V-.714C.779-.229.533 0 0 0" style="fill:#645854;fill-opacity:1;fill-rule:nonzero;stroke:none" transform="matrix(1.61049 0 0 -1.61049 211.842 9.793)"/><path d="M0 0h6.219v-.387c0-4.905-2.251-8.225-6.178-9.107L0-9.507v-2.024l.053.002c5.055.236 10.171 4.232 10.171 11.409v2.162H0Zm16.583-2.087v3.974c0 .689-.422.834-.776.834h-3.7l.151-.1c.263-.173.705-.63.705-1.722v-19.377h3.62v14.35h3.246v2.041z" style="fill:#645854;fill-opacity:1;fill-rule:nonzero;stroke:none" transform="matrix(1.61049 0 0 -1.61049 117.885 14.174)"/><path d="M0 0a2.33 2.33 0 0 1-.879.763C-9.433 4.448-20.077 6.499-29.98 6.499c-9.908 0-20.555-2.051-29.11-5.736A2.317 2.317 0 0 1-59.965 0c-.3-.449-.354-1.218-.362-1.712v-28.591c.008-.495.062-1.263.362-1.713.246-.378.591-.609.813-.732 8.572-3.703 19.236-5.762 29.172-5.762 9.928 0 20.593 2.059 29.166 5.762.221.123.565.354.814.732.294.45.351 1.218.359 1.713v28.591C.351-1.218.294-.449 0 0" style="fill:#fff;fill-opacity:1;fill-rule:nonzero;stroke:none" transform="matrix(1.61049 0 0 -1.61049 97.649 10.826)"/><path d="M0 0c-.017-.115-.263-1.66-.271-1.721L.891-1.5C.859-1.447.062-.101 0 0m32.197-31.734s-.355-.087-.394-.098c.01-.042.231-.942.244-.981.058.016.347.085.347.085.34.083.528.28.528.531a.614.614 0 0 1-.017.134c-.075.302-.332.423-.708.329m-2.328-.733a.846.846 0 0 1-.671.127.87.87 0 0 1-.57-.371c-.19-.282-.246-.698-.156-1.143.119-.605.524-1.263 1.253-1.115.25.052.449.176.58.378.186.274.238.69.146 1.134-.087.445-.301.805-.582.99M5.56-33.1s-.362.048-.404.057c-.004-.044-.13-.965-.135-1.007.039-.004.355-.048.355-.048.226-.031.414.004.538.103a.453.453 0 0 1 .182.325.445.445 0 0 1 .007.079c0 .266-.195.444-.543.491m14.661-.697a.862.862 0 0 1-.646.215.854.854 0 0 1-.614-.288c-.228-.255-.341-.658-.315-1.111.028-.456.187-.839.433-1.059a.883.883 0 0 1 .655-.219.884.884 0 0 1 .628.294c.221.246.329.65.302 1.105-.026.451-.186.839-.443 1.063m24.442 1.967c0-.609-.074-.773-.163-.985-.134-.316-.502-.51-.502-.51-8.554-3.77-19.231-5.647-28.81-5.647-9.584 0-20.262 1.877-28.816 5.647 0 0-.369.194-.504.51-.093.212-.161.376-.161.985v28.875c0 .611.068.774.161.987.135.314.504.508.504.508 8.554 3.768 19.232 5.647 28.816 5.647 9.579 0 20.256-1.879 28.81-5.647 0 0 .368-.194.502-.508.089-.213.163-.376.163-.987zm.808 30.623a2.427 2.427 0 0 1-.888.774c-8.639 3.722-19.392 5.787-29.395 5.787-10.011 0-20.764-2.065-29.402-5.787a2.402 2.402 0 0 1-.887-.774c-.299-.453-.358-1.231-.364-1.73v-28.88c.006-.497.065-1.275.364-1.73.251-.38.598-.616.822-.739 8.658-3.74 19.433-5.822 29.467-5.822 10.028 0 20.799 2.082 29.458 5.822.225.123.574.359.825.739.298.455.355 1.233.361 1.73v28.88c-.006.499-.063 1.277-.361 1.73M37.66-31.951l1.124.38a169.96 169.96 0 0 0-1.082 1.361c-.004-.114-.04-1.681-.042-1.741M19.171-1.232a.868.868 0 0 1 .653.223c.247.221.402.612.426 1.063.022.453-.097.856-.323 1.107a.854.854 0 0 1-.618.283.843.843 0 0 1-.643-.22C18.413 1 18.253.609 18.228.158c-.027-.618.199-1.352.943-1.39m20.494-31.45-.585.731c-.029-.011-1.399-.47-1.426-.481l-.021-.933-.493-.167.159 3.778.459.154.017.006 2.4-2.917zm-4.703-1.478-.985 3.389 1.708.495.023.005.133-.462s-1.213-.356-1.255-.366c.013-.04.261-.894.276-.935.035.012 1.14.334 1.14.334l.134-.466-1.142-.334c.014-.038.294-1.016.309-1.057l1.255.364.135-.464zm-1.226-.328-.766 1.067c-.209.286-.339.252-.568.193l-.24-.057c.012-.042.376-1.5.376-1.5l-.483-.121-.852 3.427.769.192c.348.084.745.148 1.046-.031.186-.116.317-.314.388-.61a.875.875 0 0 0 .028-.218c0-.3-.163-.567-.437-.711.128-.03.217-.094.351-.263l.933-1.233zm-3.915-.959c-.913-.182-1.642.403-1.861 1.489-.213 1.073.247 1.913 1.144 2.093.898.179 1.644-.418 1.861-1.489.22-1.086-.23-1.907-1.144-2.093m-1.704-.272s-.646-.099-.667-.094c0 0-1.503 1.352-1.593 1.431l.255-1.645-.487-.077-.545 3.489.493.073.225-1.479c.157.25 1.057 1.673 1.074 1.683l.591.093.048.006s-1.197-1.849-1.219-1.88l1.879-1.591zm-5.585-.745-.492-.05-.355 3.512 1.681.172h.025l.046-.483-1.214-.123c.006-.042.096-.925.101-.966l1.156.114.046-.481-1.154-.116.16-1.579m-1.761.188c-.248-.28-.598-.441-1.008-.463-.928-.057-1.573.622-1.636 1.726-.064 1.09.504 1.859 1.421 1.915.913.055 1.574-.64 1.637-1.731.033-.593-.113-1.107-.414-1.447m-4.118 2.955s-1.219-2.015-1.224-2.013l-.003-1.48-.494.001.002 1.475-1.219 2.022-.019.033h.581s.877-1.479.916-1.541l.9 1.539.579-.003zm-3.332-.43-.972.041-.136-3.04-.493.021s.135 2.997.135 3.041l-.972.045.021.459v.026l2.443-.111zm-3.225-2.88-.496.033.258 3.5v.021l.496-.035zm-1.849 2.266c.36-.24.772-.518.706-1.18-.065-.673-.53-1.011-1.267-.937-.231.02-.438.114-.633.209l-.016.007.104.506.025-.017c.08-.048.366-.204.623-.23a.664.664 0 0 1 .461.132.505.505 0 0 1 .182.353c.033.34-.217.507-.512.698-.34.225-.726.477-.669 1.075.062.587.5.925 1.124.864.226-.022.465-.094.659-.192l.017-.008-.119-.499-.025.017c-.217.121-.338.177-.563.198-.103.009-.293.013-.424-.098-.084-.065-.129-.163-.142-.291-.027-.273.201-.428.469-.607m-1.631.635a.803.803 0 0 0-.731-.708c.113-.078.172-.169.235-.38l.411-1.488-.558.076-.318 1.278c-.089.341-.218.359-.455.389 0 0-.205.029-.245.033l-.211-1.533-.488.069.472 3.473.005.021.783-.104c.359-.051.75-.136.959-.413a.805.805 0 0 0 .155-.508c0-.068-.006-.132-.014-.205m-2.654.864-1.287.225c-.006-.044-.161-.916-.168-.958l1.171-.205-.082-.48-1.175.209c-.006-.044-.182-1.046-.189-1.088.043-.006 1.287-.224 1.287-.224l-.081-.477-1.779.31.608 3.454.006.024 1.773-.314zm-4.688-2.195-.415 3.673v.032l.538-.117s.279-3.036.29-3.14c.056.092 1.599 2.726 1.599 2.726l.509-.11-1.942-3.189zm-1.759.415-.477.125.858 3.395.008.024.477-.123zm-2.05.543s-.524 2.948-.551 3.087l-.785-2.7-.477.138.981 3.368.007.022.622-.18s.508-2.873.536-3.018l.769 2.64.473-.138-.986-3.391zm-3.917 1.162c-.333.115-.569.307-.697.575-.163.332-.157.76.019 1.271l.662 1.932.008.018.469-.158-.653-1.89c-.145-.424-.162-.742-.053-.963.075-.153.206-.259.402-.327a.67.67 0 0 1 .518.009c.219.112.4.37.546.796l.649 1.89.464-.16-.668-1.953c-.318-.929-.914-1.301-1.666-1.04m33.651 4.576v-2.162c-3.514-.415-7.036-.632-10.006-.632-6.288 0-15.048.956-20.961 2.794zm-33.448 7.791h28.397v-.989H3.755v-4.207h23.057v7.793h11.821v-8.229c-.006-.33-.046-.84-.278-1.139a1.725 1.725 0 0 0-.618-.484c-2.929-1.101-6.864-1.934-10.925-2.493v3.564H-8.197a3.389 3.389 0 0 0-.052.552zm0 12.797c.002.06.003.13.01.205H3.755v-11.392H-8.249Zm1.238 6.253c.21.376.557.638 1.004.763.261.073.5.088.727.046l.014-.002.109-.528-.038.011a1.09 1.09 0 0 1-.664.012 1.099 1.099 0 0 1-.679-.524c-.171-.303-.2-.688-.091-1.086.212-.748.831-1.157 1.478-.974.198.055.474.193.599.339l.029.031.172-.511-.01-.008c-.155-.132-.377-.238-.664-.32-.451-.127-.882-.085-1.246.121-.409.227-.708.641-.866 1.197-.144.518-.1 1.027.126 1.433M-.334.503l.477.092.016.002 1.985-3.212-.533-.102s-.465.777-.478.804c-.031-.006-1.448-.28-1.479-.284l-.146-.923-.51-.096zM7.13 1.602l.021.002.055-.483-.967-.11.341-3.025-.493-.055S5.751.91 5.748.954L4.775.846l-.054.482Zm18.069-19.579v-6.183H5.368v.988h16.391v4.208H5.368v12.999H-6.83c4.231 1.489 10.334 2.46 15.911 2.889v-14.901zm-9.844 7.792h23.278v-.99H15.355Zm23.278-6.181H26.811v.987h11.822zm-23.278 3.584h23.278v-.988H15.355Zm-4.666 5.195h27.934c.006-.067.01-.134.01-.19v-.798H13.746v-6.804h11.453v-.987h-14.51zm0 4.619c1.583.092 3.103.142 4.504.142 6.685 0 16.19-1.075 22.058-3.151H10.689Zm.942 4.878s.05-1.413.05-1.457c.044 0 1.406.046 1.453.046l-.05 1.459.473.015.025.003.114-3.53-.492-.016s-.051 1.543-.051 1.587c-.047-.002-1.414-.048-1.455-.051 0-.043.052-1.585.052-1.585l-.497-.017-.114 3.53zm6.08-1.724c.029.586.238 1.082.581 1.39.277.253.638.374 1.044.354.914-.049 1.489-.813 1.435-1.901-.03-.595-.237-1.091-.571-1.395-.28-.25-.642-.371-1.053-.349-.414.021-.763.18-1.011.453-.306.341-.457.857-.425 1.448m7.294 1.171.002.023.493-.065-.401-3.017c.042-.007 1.299-.174 1.299-.174l-.061-.479-1.794.235zm5.732-.919.005.021.482-.096-.693-3.461-.485.097zm4.073-2.696c.288 1.026 1.154 1.558 2.105 1.295.263-.073.472-.182.651-.336l.011-.013-.182-.507-.027.029a1.112 1.112 0 0 1-.56.352 1.1 1.1 0 0 1-.856-.093c-.303-.171-.528-.485-.637-.879-.11-.397-.077-.781.096-1.086.144-.255.378-.437.66-.516.196-.054.508-.079.689-.018l.038.011-.117-.525-.015-.005c-.2-.031-.437-.008-.728.071-.984.27-1.423 1.143-1.128 2.22m8.42.46c-8.525 3.577-18.751 5.39-28.049 5.39-9.305 0-19.526-1.813-28.049-5.39-.555-.276-.825-.52-.825-1.151v-28.858c0-.632.27-.88.825-1.153 8.523-3.577 18.744-5.392 28.049-5.392 9.298 0 19.524 1.815 28.049 5.392.551.273.823.521.823 1.153v28.858c0 .631-.272.875-.823 1.151" style="fill:#2350a9;fill-opacity:1;fill-rule:nonzero;stroke:none" transform="matrix(1.61049 0 0 -1.61049 24.906 8.623)"/></svg>